<svg id="final2" xmlns="http://www.w3.org/2000/svg" xmlns:xlink="http://www.w3.org/1999/xlink" viewBox="0 0 1080 1080"><defs><style>.cls-1{fill:url(#linear-gradient);}.cls-2{fill:url(#linear-gradient-2);}</style><linearGradient id="linear-gradient" x1="454.62" y1="347.98" x2="454.62" y2="713.99" gradientUnits="userSpaceOnUse"><stop offset="0" stop-color="#1acdd4"/><stop offset="1" stop-color="#4a0de4"/></linearGradient><linearGradient id="linear-gradient-2" x1="811.21" y1="347.98" x2="811.21" y2="713.99" xlink:href="#linear-gradient"/></defs><path class="cls-1" d="M743.91,599.73,675,480.28h0l-51.73-89.59a59.72,59.72,0,0,0-51.72-29.87h0a61.58,61.58,0,0,0-6.42.33H319.71c-96.55,0-176.6,76.25-179.61,172.75q-.1,3.11-.1,6.28t.1,6.27c3,96.5,83.06,172.75,179.61,172.75H537.49a46.5,46.5,0,0,0,9.1-.9c37.51-6.07,59.14-48.58,39.2-83.11l-16.13-27.94-48.41-83.85a55.91,55.91,0,0,0-48.41-27.94h0q-.81,0-1.62,0c-.84-.05-1.68-.08-2.52-.08H352.87a44.77,44.77,0,0,0-44.77,44.77h0a44.77,44.77,0,0,0,44.77,44.76h74.82l12.88,22.31h0l12.95,22.44H332.7c-48.55,0-88.58-38.76-89.32-87.31,0-.73,0-1.46,0-2.2s0-1.48,0-2.21c.74-48.54,40.77-87.31,89.32-87.31H519.91L537,480.27h0l69,119.46,51.72,89.59a59.74,59.74,0,0,0,51.73,29.87h0c46,0,74.72-49.78,51.73-89.59Z"/><path class="cls-2" d="M931.91,629.6l-17.25-29.87-69-119.45h0L794,390.68a59.71,59.71,0,0,0-51.72-29.87h0c-46,0-74.71,49.77-51.73,89.59l17.25,29.87h0l69,119.46,51.73,89.59a59.72,59.72,0,0,0,51.72,29.87h0C926.16,719.19,954.9,669.41,931.91,629.6Z"/></svg>